<?xml version="1.0" encoding="UTF-8" standalone="no"?>
<svg
   width="98"
   height="96"
   version="1.1"
   id="svg1"
   sodipodi:docname="velog-logo.svg"
   inkscape:version="1.3 (0e150ed6c4, 2023-07-21)"
   xmlns:inkscape="http://www.inkscape.org/namespaces/inkscape"
   xmlns:sodipodi="http://sodipodi.sourceforge.net/DTD/sodipodi-0.dtd"
   xmlns="http://www.w3.org/2000/svg"
   xmlns:svg="http://www.w3.org/2000/svg">
  <defs
     id="defs1" />
  <sodipodi:namedview
     id="namedview1"
     pagecolor="#505050"
     bordercolor="#eeeeee"
     borderopacity="1"
     inkscape:showpageshadow="0"
     inkscape:pageopacity="0"
     inkscape:pagecheckerboard="0"
     inkscape:deskcolor="#d1d1d1"
     showguides="false"
     inkscape:zoom="11.313709"
     inkscape:cx="18.075417"
     inkscape:cy="42.558989"
     inkscape:window-width="3840"
     inkscape:window-height="2054"
     inkscape:window-x="-11"
     inkscape:window-y="-11"
     inkscape:window-maximized="1"
     inkscape:current-layer="svg1" />
  <g
     id="g1"
     transform="matrix(0.49479167,0,0,0.49479167,1.4999997,0.49999968)"
     style="fill:#12b886;fill-opacity:1">
    <path
       fill-rule="evenodd"
       d="m 24,0 h 144 c 13.255,0 24,10.745 24,24 v 144 c 0,13.255 -10.745,24 -24,24 H 24 C 10.745,192 0,181.255 0,168 V 24 C 0,10.745 10.745,0 24,0 Z m 25,57.92 v 7.56 h 18 l 13.68,77.04 17.82,-1.26 c 17.52,-22.2 29.34,-38.82 35.46,-49.86 6.24,-11.16 9.36,-20.46 9.36,-27.9 0,-4.44 -1.32,-7.8 -3.96,-10.08 -2.52,-2.28 -5.7,-3.42 -9.54,-3.42 -7.2,0 -13.2,3.06 -18,9.18 4.68,3.12 7.86,5.7 9.54,7.74 1.8,1.92 2.7,4.5 2.7,7.74 0,5.4 -1.62,11.52 -4.86,18.36 -3.12,6.84 -6.54,12.9 -10.26,18.18 -2.4,3.36 -5.46,7.5 -9.18,12.42 L 88.06,57.2 C 87.1,52.4 84.1,50 79.06,50 76.78,50 72.4,50.96 65.92,52.88 59.44,54.68 53.8,56.36 49,57.92 Z"
       clip-rule="evenodd"
       id="path1"
       style="fill:#12b886;fill-opacity:1" />
  </g>
</svg>
